<svg xmlns="http://www.w3.org/2000/svg" width="177" height="51" viewBox="0 0 177 51">
    <g fill="none" fill-rule="evenodd">
        <path fill="#94C5FF" d="M25.016.013c-5 1.8-21 8-24.618 17.784-1.782 7.216 2.418 18.816 12.618 31.816 4.293 3.197 3.6-1.4 2.2-5.2-2.224-6.037-5.59-16.103-3.2-23.6 1.6-8 13-17 14.2-17.8 1.2-1 1.4-3.2-1.2-3z"/>
        <path fill="#0092FF" d="M24.616 19.813c.8 0 5.2 1.4 6.2 6 .8 4.8-1 6.2-1.6 7.6-1.6 2.4-3.4 7.2.6 9.8 1.655 1.075 4.247.917 6.4 0 3.051-1.3 5.58-3.848 6.4-4.2 1.467-.4 2.2.133 2.2 1.6-.533 3.866-3.6 6.8-9.2 8.8-8.4 3-14.4-3.6-16.6-9.8-2.2-6.2-2-16 3.6-19.4.8-.4 1.2-.4 2-.4z"/>
        <path fill="#94C5FF" d="M44.416 21.613c2.43 0 4.4-2.507 4.4-5.6 0-3.093-1.97-5.6-4.4-5.6-2.43 0-4.4 2.507-4.4 5.6 0 3.093 1.97 5.6 4.4 5.6z"/>
        <path fill="#061026" fill-rule="nonzero" d="M67.514 33.292c1.36 0 2.93.218 4.707.655v3.26l-.365-.116c-1.679-.522-3.035-.783-4.068-.783-1.35 0-2.438.518-3.26 1.554-.823 1.036-1.234 2.412-1.234 4.129 0 1.757.444 3.163 1.333 4.22.888 1.056 2.074 1.584 3.557 1.584 1.35 0 2.742-.295 4.174-.884v3.123l-.556.142c-1.658.403-3.204.605-4.639.605-2.67 0-4.78-.785-6.33-2.354-1.548-1.569-2.323-3.704-2.323-6.406 0-2.732.797-4.87 2.392-6.414 1.594-1.543 3.798-2.315 6.612-2.315zm39.546 0c1.361 0 2.981.198 4.86.594v3.169l-.382-.13c-1.638-.543-3.009-.815-4.112-.815-1.869 0-2.803.58-2.803 1.737 0 .762.69 1.407 2.072 1.935l1.31.502.36.14c1.768.696 3.012 1.401 3.73 2.115.767.762 1.15 1.742 1.15 2.94 0 1.575-.652 2.852-1.957 3.832-1.305.98-3.004 1.47-5.096 1.47-2.01 0-4.042-.305-6.094-.914V46.56l.415.17c2.057.82 3.828 1.232 5.313 1.232 1.849 0 2.773-.63 2.773-1.89 0-.812-.762-1.523-2.285-2.132l-1.523-.61-.325-.134c-1.487-.632-2.562-1.309-3.225-2.029-.711-.772-1.066-1.727-1.066-2.864 0-1.584.604-2.816 1.812-3.694 1.209-.879 2.9-1.318 5.073-1.318zm13.604-2.956v3.337h3.58v2.818h-3.58v8.211l.004.224c.06 1.902.896 2.854 2.51 2.854.386 0 .848-.071 1.386-.214v2.743l-.316.09c-.928.254-1.67.382-2.228.382-3.91 0-5.865-1.828-5.865-5.485v-8.805h-1.874v-2.818h1.874v-2.819l4.51-.518zm20.291 2.956c2.448 0 4.235.772 5.363 2.315 1.127 1.544 1.69 3.987 1.69 7.328h-10.374l.03.27c.376 3.009 2.118 4.514 5.226 4.514 1.513 0 3.22-.35 5.119-1.051v3.168l-.534.151c-1.947.53-3.8.794-5.56.794-2.793 0-4.997-.792-6.612-2.377-1.614-1.584-2.422-3.747-2.422-6.49 0-2.59.739-4.674 2.217-6.253 1.477-1.58 3.43-2.37 5.857-2.37zm27.375 0c4.378 0 6.566 1.742 6.566 5.225v7.404l.004.202c.042 1.175.462 1.763 1.26 1.763.153 0 .351-.02.595-.06l.107 2.528-.353.1c-.811.218-1.536.327-2.176.327-1.849 0-3.037-.726-3.565-2.179h-.198l-.252.236c-1.43 1.295-2.956 1.943-4.577 1.943-1.463 0-2.651-.447-3.565-1.34-.914-.895-1.371-2.052-1.371-3.474 0-1.849.738-3.273 2.216-4.273 1.478-1 3.593-1.501 6.345-1.501h1.204V38.67l-.004-.19c-.07-1.61-1.06-2.416-2.967-2.416-1.757 0-3.534.498-5.332 1.493V34.45l.47-.172c1.882-.657 3.747-.986 5.593-.986zm-89.437-6.947v10.481l.172-.266c1.448-2.179 3.29-3.268 5.526-3.268 1.493 0 2.671.472 3.534 1.417.864.944 1.295 2.234 1.295 3.87V50.4h-4.51V39.69l-.002-.223c-.049-1.75-.677-2.626-1.886-2.626-1.432 0-2.808 1.011-4.129 3.032V50.4h-4.51V26.345h4.51zm18.25 7.328V50.4h-4.509V33.673h4.51zm63.129-.381c.284 0 .564.03.838.091v4.022l-.272-.093a4.979 4.979 0 0 0-1.51-.257c-1.798 0-3.26.909-4.388 2.727V50.4h-4.51V33.673h4.51v3.153l.132-.257c1.168-2.185 2.902-3.277 5.2-3.277zm10.298 9.49h-1.067l-.277.004c-2.73.057-4.095.97-4.095 2.739 0 .62.21 1.14.632 1.562.422.421.942.632 1.562.632 1.056 0 2.138-.513 3.245-1.539v-3.397zM130.309 40v2.818H125.6V40h4.709zm10.51-3.89c-1.87 0-2.951 1.427-3.246 4.281h6.003c0-2.854-.92-4.28-2.758-4.28zm-43.676-9.019v3.763h-4.509v-3.763h4.51z"/>
    </g>
</svg>
